:SAMPLES-PER-SECOND 30
:FULLY-SPECIFIED
:DEGREES
201
root  -2.79851 40.8812 1.03202 175.869 -71.9596 -176.638
RightUpLeg  1.93437 0.684821 -0.470415
RightLeg  -0.0470136 -4.13604 -1.08516
RightFoot  -0.338265 -0.365387 3.79166
RightToes  -3.13006e-008 1.75238e-005 3.56266e-009
Spine  -6.74064 -4.01463 -5.61254
Spine1  17.3632 -6.21612 6.59136
HEad  -7.93075 24.2033 16.2671
LeftShoulder1  2.00104 -3.55487 -22.0131
LeftArm  -19.4378 17.6154 -19.61
LeftForeArm  126.451 -72.7372 -142.158
LeftHand  3.00649 -8.19184 -24.8807
RightShoulder  2.15893 3.43285 25.0693
RightArm  1.69312 -31.2138 39.5651
RightForeArm  146.767 75.7014 138.05
RightHand  -0.194631 8.2169 -2.02871
LeftUpLeg  6.40667 2.19512 2.14427
LeftLeg  -1.79738 28.9566 -1.17212
LeftFoot  -2.17492 0.293713 -3.35969
LeftToes  4.76866e-008 1.46233e-008 1.30548e-009
202
root  -2.79957 40.8826 1.01927 175.701 -71.5758 -176.305
RightUpLeg  1.8483 0.742966 -0.350218
RightLeg  -0.26839 -3.8392 -0.998944
RightFoot  -0.222549 -0.364923 3.77302
RightToes  -3.13006e-008 1.75238e-005 3.56266e-009
Spine  -6.99584 -3.73654 -5.41676
Spine1  17.5597 -5.84188 6.31825
HEad  -7.98485 24.1214 17.3817
LeftShoulder1  2.08858 -3.74241 -22.5285
LeftArm  -25.824 17.9089 -20.842
LeftForeArm  128.666 -67.9294 -151.035
LeftHand  3.21355 -9.45961 -24.2774
RightShoulder  2.16066 3.43961 25.0632
RightArm  1.30307 -32.3837 39.593
RightForeArm  145.492 75.6866 137.831
RightHand  -0.0108824 8.31756 -0.476463
LeftUpLeg  6.22965 2.28759 2.29469
LeftLeg  -1.62309 29.2321 -1.11357
LeftFoot  -2.27248 0.296523 -3.42361
LeftToes  4.76866e-008 1.46233e-008 1.30548e-009
203
root  -2.78386 40.8893 0.987134 175.631 -71.7516 -176.148
RightUpLeg  1.88655 0.725981 -0.292086
RightLeg  -0.480654 -4.02445 -0.915999
RightFoot  -0.154056 -0.367731 3.80726
RightToes  -3.13006e-008 1.75238e-005 3.56266e-009
Spine  -6.83205 -3.65116 -5.76641
Spine1  17.0559 -5.79788 6.68337
HEad  -7.56692 23.8102 17.9093
LeftShoulder1  1.90247 -3.01477 -22.9021
LeftArm  -35.1426 14.432 -23.6544
LeftForeArm  122.332 -64.7893 -154.261
LeftHand  2.92492 -9.44964 -22.1042
RightShoulder  2.21635 3.66015 24.8698
RightArm  1.40239 -33.6358 39.4181
RightForeArm  145.067 75.8902 137.119
RightHand  -0.0378482 8.48501 -0.706583
LeftUpLeg  6.17209 2.31585 2.40735
LeftLeg  -1.75133 29.0074 -1.18074
LeftFoot  -2.19897 0.292436 -3.38108
LeftToes  4.76866e-008 1.46233e-008 1.30548e-009
204
root  -2.80366 40.8962 0.948898 175.159 -72.5501 -175.732
RightUpLeg  2.33415 0.698268 -0.197293
RightLeg  -0.925892 -4.77032 -0.806544
RightFoot  -0.0692465 -0.370037 3.83619
RightToes  -3.13006e-008 1.75238e-005 3.56266e-009
Spine  -6.80121 -3.79636 -6.13945
Spine1  16.7048 -6.04939 7.14048
HEad  -6.94096 23.7328 18.0455
LeftShoulder1  1.81653 -2.65758 -23.2092
LeftArm  -45.2732 8.29929 -26.3992
LeftForeArm  113.403 -64.2421 -154.059
LeftHand  2.46286 -8.76426 -19.5778
RightShoulder  2.18293 3.60749 24.6172
RightArm  1.96839 -34.4617 39.2579
RightForeArm  143.762 76.1485 136.014
RightHand  -0.159517 7.99416 -1.75305
LeftUpLeg  6.24791 2.32744 2.56964
LeftLeg  -1.84898 28.1743 -1.13816
LeftFoot  -2.14212 0.302216 -3.5552
LeftToes  4.76866e-008 1.46233e-008 1.30548e-009
205
root  -2.78951 40.9027 0.920309 175.194 -73.3565 -175.685
RightUpLeg  2.30772 0.650042 -0.220821
RightLeg  -0.890794 -5.50566 -0.767609
RightFoot  -0.101088 -0.373705 3.88907
RightToes  -3.13006e-008 1.75238e-005 3.56266e-009
Spine  -6.7207 -3.86841 -6.18433
Spine1  16.0385 -6.04892 7.10277
HEad  -5.96136 23.2518 18.1418
LeftShoulder1  1.91267 -2.97518 -23.2562
LeftArm  -54.2666 0.864305 -28.2054
LeftForeArm  104.112 -65.8286 -151.399
LeftHand  2.03478 -8.66439 -16.2612
RightShoulder  2.17189 3.58574 24.552
RightArm  2.20151 -35.3441 39.0782
RightForeArm  143.555 76.4247 135.048
RightHand  -0.11921 8.32484 -1.38872
LeftUpLeg  6.1543 2.11892 2.49995
LeftLeg  -2.11403 27.624 -1.07348
LeftFoot  -1.94893 0.303907 -3.60399
LeftToes  4.76866e-008 1.46233e-008 1.30548e-009
206
root  -2.78505 40.9073 0.882984 175.003 -74.1485 -175.588
RightUpLeg  2.56678 0.508978 -0.242552
RightLeg  -0.995469 -6.16521 -0.646087
RightFoot  -0.145501 -0.36709 3.7855
RightToes  -3.13006e-008 1.75238e-005 3.56266e-009
Spine  -6.55834 -3.94825 -6.35616
Spine1  15.548 -6.11674 7.21158
HEad  -5.45472 22.8284 17.0941
LeftShoulder1  1.9509 -3.18395 -22.8841
LeftArm  -61.6801 -6.08482 -29.8076
LeftForeArm  92.6512 -69.1977 -145.228
LeftHand  1.55355 -7.75387 -13.2352
RightShoulder  2.25031 3.76848 24.8773
RightArm  2.57883 -35.9943 38.3289
RightForeArm  143.468 76.5522 134.584
RightHand  -0.0869836 8.42378 -1.11552
LeftUpLeg  6.17858 2.04004 2.52424
LeftLeg  -2.13787 26.9208 -0.966826
LeftFoot  -1.88896 0.311423 -3.74389
LeftToes  4.76866e-008 1.46233e-008 1.30548e-009
207
root  -2.78464 40.9106 0.860229 174.933 -74.7561 -175.652
RightUpLeg  2.76014 0.371585 -0.312465
RightLeg  -0.933836 -6.55458 -0.596675
RightFoot  -0.218328 -0.367105 3.78834
RightToes  -3.13006e-008 1.75238e-005 3.56266e-009
Spine  -6.69383 -4.18123 -6.58764
Spine1  15.512 -6.40343 7.45792
HEad  -5.07877 23.2556 16.1997
LeftShoulder1  1.9344 -3.30209 -22.094
LeftArm  -68.1989 -11.427 -31.4953
LeftForeArm  78.7303 -73.5914 -132.613
LeftHand  1.00619 -5.74441 -10.1234
RightShoulder  2.32935 4.05193 24.7518
RightArm  3.25527 -35.7491 37.9806
RightForeArm  141.386 76.9455 132.672
RightHand  -0.120437 8.04292 -1.41692
LeftUpLeg  6.28292 2.00558 2.52778
LeftLeg  -2.20143 26.3285 -0.966821
LeftFoot  -1.81921 0.309433 -3.73603
LeftToes  4.76866e-008 1.46233e-008 1.30548e-009
208
root  -2.78719 40.9102 0.849962 175.055 -75.1609 -175.899
RightUpLeg  2.87613 0.232793 -0.42802
RightLeg  -0.80398 -6.75269 -0.587704
RightFoot  -0.330512 -0.368153 3.8111
RightToes  -3.13006e-008 1.75238e-005 3.56266e-009
Spine  -6.72891 -4.20438 -6.9411
Spine1  15.4427 -6.5849 8.11564
HEad  -5.32352 23.0393 15.079
LeftShoulder1  2.08973 -3.83986 -22.1343
LeftArm  -73.5195 -14.8838 -31.8214
LeftForeArm  58.1086 -77.5101 -106.229
LeftHand  0.527429 -3.603 -6.54269
RightShoulder  2.30014 3.95404 24.767
RightArm  3.71216 -35.2293 37.6104
RightForeArm  140.433 77.2684 131.187
RightHand  -0.0970751 8.47647 -1.19758
LeftUpLeg  6.37769 1.99455 2.486
LeftLeg  -2.2366 25.957 -1.01554
LeftFoot  -1.80991 0.303251 -3.66296
LeftToes  4.76866e-008 1.46233e-008 1.30548e-009
209
root  -2.81401 40.9074 0.846477 174.703 -75.3746 -175.713
RightUpLeg  3.10732 0.139598 -0.432278
RightLeg  -0.766101 -6.89429 -0.518203
RightFoot  -0.381546 -0.363745 3.75338
RightToes  -3.13006e-008 1.75238e-005 3.56266e-009
Spine  -6.69866 -4.17811 -6.91427
Spine1  15.2427 -6.66217 8.4616
HEad  -5.31781 22.9998 14.2194
LeftShoulder1  2.00633 -3.60962 -21.8642
LeftArm  -76.4345 -16.8427 -32.5802
LeftForeArm  31.2226 -77.4429 -68.3058
LeftHand  0.18308 -1.34263 -3.05456
RightShoulder  2.35483 4.10381 24.8812
RightArm  4.60385 -34.9047 36.8105
RightForeArm  140.07 77.1786 131.454
RightHand  -0.144624 7.97382 -1.62645
LeftUpLeg  6.48369 2.06559 2.555
LeftLeg  -2.01075 25.648 -0.914952
LeftFoot  -1.91119 0.304202 -3.70088
LeftToes  4.76866e-008 1.46233e-008 1.30548e-009
210
root  -2.85104 40.9059 0.8496 174.625 -75.3497 -175.793
RightUpLeg  3.31405 0.0637884 -0.46672
RightLeg  -0.72127 -6.85277 -0.524894
RightFoot  -0.453879 -0.357145 3.68188
RightToes  -3.13006e-008 1.75238e-005 3.56266e-009
Spine  -6.97886 -4.18146 -6.82483
Spine1  15.402 -6.76076 8.73868
HEad  -5.31383 22.8699 13.5109
LeftShoulder1  1.9461 -3.46262 -21.5781
LeftArm  -77.8496 -16.4074 -32.687
LeftForeArm  19.2979 -72.8868 -39.2914
LeftHand  0.0807238 0.625749 -2.13198
RightShoulder  2.43974 4.35078 24.9934
RightArm  4.63967 -34.2917 36.6106
RightForeArm  138.549 77.4897 129.799
RightHand  -0.118823 8.02325 -1.40163
LeftUpLeg  6.74453 2.11059 2.53712
LeftLeg  -2.08021 25.6465 -0.978968
LeftFoot  -1.97333 0.299047 -3.64345
LeftToes  4.76866e-008 1.46233e-008 1.30548e-009
211
root  -2.90413 40.901 0.861472 174.636 -75.2446 -175.896
RightUpLeg  3.42623 0.00912843 -0.534663
RightLeg  -0.618959 -6.67058 -0.55237
RightFoot  -0.573369 -0.3655 3.82796
RightToes  -3.13006e-008 1.75238e-005 3.56266e-009
Spine  -7.31287 -4.08802 -6.7881
Spine1  15.7043 -6.79163 9.09697
HEad  -5.46162 22.4081 12.2135
LeftShoulder1  2.05848 -3.81746 -21.7753
LeftArm  -76.7082 -13.5152 -32.0208
LeftForeArm  29.4806 -68.2447 -25.927
LeftHand  0.101728 0.630633 -2.87467
RightShoulder  2.35851 4.12882 24.8271
RightArm  4.84019 -33.7037 36.6902
RightForeArm  138.485 77.6768 128.974
RightHand  -0.177684 7.85472 -1.92505
LeftUpLeg  6.9564 2.12973 2.48818
LeftLeg  -2.12687 25.7289 -1.02743
LeftFoot  -2.04189 0.290981 -3.5403
LeftToes  4.76866e-008 1.46233e-008 1.30548e-009
212
root  -2.9532 40.8994 0.878831 174.68 -75.0688 -176.001
RightUpLeg  3.50949 -0.037697 -0.59525
RightLeg  -0.558591 -6.43142 -0.575203
RightFoot  -0.624094 -0.360369 3.76206
RightToes  -3.13006e-008 1.75238e-005 3.56266e-009
Spine  -7.56401 -4.17615 -6.81206
Spine1  16.1113 -6.96366 9.2593
HEad  -5.93032 22.3887 11.1709
LeftShoulder1  2.12431 -4.05892 -21.7455
LeftArm  -73.1028 -7.94827 -31.6586
LeftForeArm  53.1118 -68.2448 -22.5543
LeftHand  0.495919 -1.14328 -7.83708
RightShoulder  2.34999 4.05734 25.016
RightArm  4.98669 -32.7851 36.7215
RightForeArm  138.141 77.7923 128.364
RightHand  -0.148097 7.61643 -1.68705
LeftUpLeg  7.12397 2.18947 2.46673
LeftLeg  -2.14015 25.791 -1.10821
LeftFoot  -2.09934 0.283474 -3.44525
LeftToes  4.76866e-008 1.46233e-008 1.30548e-009
213
root  -3.00129 40.895 0.897539 174.753 -74.7521 -176.04
RightUpLeg  3.43145 -0.00460387 -0.599627
RightLeg  -0.429201 -6.1725 -0.645473
RightFoot  -0.664265 -0.358752 3.74823
RightToes  -3.13006e-008 1.75238e-005 3.56266e-009
Spine  -7.80552 -4.32506 -6.84904
Spine1  16.5582 -7.17983 9.35057
HEad  -7.02286 22.5741 10.5669
LeftShoulder1  2.10739 -3.90954 -22.1056
LeftArm  -67.0025 -1.71654 -31.0376
LeftForeArm  77.5909 -72.0442 -25.1375
LeftHand  1.74858 -6.52382 -16.7887
RightShoulder  2.34365 3.98577 25.2392
RightArm  4.98934 -31.9179 36.9291
RightForeArm  138.096 78.0072 127.365
RightHand  -0.15845 7.66137 -1.7746
LeftUpLeg  7.24865 2.16628 2.39572
LeftLeg  -2.26059 26.1538 -1.15795
LeftFoot  -2.16298 0.279298 -3.4013
LeftToes  4.76866e-008 1.46233e-008 1.30548e-009
214
root  -3.08119 40.8863 0.931155 173.671 -74.6738 -175.216
RightUpLeg  3.97667 -0.00238758 -0.47675
RightLeg  -0.685416 -6.10593 -0.55185
RightFoot  -0.663741 -0.357378 3.73592
RightToes  -3.13006e-008 1.75238e-005 3.56266e-009
Spine  -7.79558 -4.51892 -6.20403
Spine1  17.0089 -7.33669 8.76377
HEad  -8.39559 22.1057 10.5368
LeftShoulder1  2.07973 -3.74743 -22.3695
LeftArm  -58.7793 4.39743 -30.6523
LeftForeArm  83.7578 -75.9023 -34.0319
LeftHand  2.60925 -7.80395 -22.2669
RightShoulder  2.3517 3.95183 25.5028
RightArm  4.60808 -31.7857 37.3539
RightForeArm  138.429 77.9408 127.762
RightHand  -0.174965 7.62521 -1.92732
LeftUpLeg  7.48601 2.3476 2.58772
LeftLeg  -1.8022 26.0107 -0.933428
LeftFoot  -2.49862 0.281027 -3.44835
LeftToes  4.76866e-008 1.46233e-008 1.30548e-009
